HIERARCHY
ROOT Hips
{
	OFFSET 0.000000 0.000000 0.000000
	CHANNELS 6 Xposition Yposition Zposition Zrotation Yrotation Xrotation 
	JOINT LHipJoint
	{
		OFFSET 0.000000 0.000000 0.000000
		CHANNELS 3 Zrotation Yrotation Xrotation
		JOINT LeftUpLeg
		{
			OFFSET 1.363060 -1.794630 0.839290
			CHANNELS 3 Zrotation Yrotation Xrotation
			JOINT LeftLeg
			{
				OFFSET 2.448110 -6.726130 0.000000
				CHANNELS 3 Zrotation Yrotation Xrotation
				JOINT LeftFoot
				{
					OFFSET 2.562200 -7.039590 0.000000
					CHANNELS 3 Zrotation Yrotation Xrotation
					JOINT LeftToeBase
					{
						OFFSET 0.157640 -0.433110 2.322550
						CHANNELS 3 Zrotation Yrotation Xrotation
						End Site
						{
							OFFSET 0.000000 0.000000 0.000000
						}
					}
				}
			}
		}
	}
	JOINT RHipJoint
	{
		OFFSET 0.000000 0.000000 0.000000
		CHANNELS 3 Zrotation Yrotation Xrotation
		JOINT RightUpLeg
		{
			OFFSET -1.305520 -1.794630 0.839290
			CHANNELS 3 Zrotation Yrotation Xrotation
			JOINT RightLeg
			{
				OFFSET -2.542530 -6.985550 0.000000
				CHANNELS 3 Zrotation Yrotation Xrotation
				JOINT RightFoot
				{
					OFFSET -2.568260 -7.056230 0.000000
					CHANNELS 3 Zrotation Yrotation Xrotation
					JOINT RightToeBase
					{
						OFFSET -0.164730 -0.452590 2.363150
						CHANNELS 3 Zrotation Yrotation Xrotation
						End Site
						{
							OFFSET 0.000000 0.000000 0.000000
						}
					}
				}
			}
		}
	}
	JOINT LowerBack
	{
		OFFSET 0.000000 0.000000 0.000000
		CHANNELS 3 Zrotation Yrotation Xrotation
		JOINT Spine
		{
			OFFSET 0.028270 2.035590 -0.193380
			CHANNELS 3 Zrotation Yrotation Xrotation
			JOINT Spine1
			{
				OFFSET 0.056720 2.048850 -0.042750
				CHANNELS 3 Zrotation Yrotation Xrotation
				JOINT Neck
				{
					OFFSET 0.000000 0.000000 0.000000
					CHANNELS 3 Zrotation Yrotation Xrotation
					JOINT Neck1
					{
						OFFSET -0.054170 1.746240 0.172020
						CHANNELS 3 Zrotation Yrotation Xrotation
						JOINT Head
						{
							OFFSET 0.104070 1.761360 -0.123970
							CHANNELS 3 Zrotation Yrotation Xrotation
							End Site
							{
								OFFSET 0.000000 0.000000 0.000000
							}
						}
					}
				}
				JOINT LeftShoulder
				{
					OFFSET 0.000000 0.000000 0.000000
					CHANNELS 3 Zrotation Yrotation Xrotation
					JOINT LeftArm
					{
						OFFSET 3.362410 1.200890 -0.311210
						CHANNELS 3 Zrotation Yrotation Xrotation
						JOINT LeftForeArm
						{
							OFFSET 4.983000 -0.000000 -0.000000
							CHANNELS 3 Zrotation Yrotation Xrotation
							JOINT LeftHand
							{
								OFFSET 3.483560 -0.000000 -0.000000
								CHANNELS 3 Zrotation Yrotation Xrotation
								JOINT LeftFingerBase
								{
									OFFSET 0.000000 0.000000 0.000000
									CHANNELS 3 Zrotation Yrotation Xrotation
									JOINT LeftHandIndex1
									{
										OFFSET 0.715260 -0.000000 -0.000000
										CHANNELS 3 Zrotation Yrotation Xrotation
										End Site
										{
											OFFSET 0.000000 0.000000 0.000000
										}
									}
								}
								JOINT LThumb
								{
									OFFSET 0.000000 0.000000 0.000000
									CHANNELS 3 Zrotation Yrotation Xrotation
									End Site
									{
										OFFSET 0.000000 0.000000 0.000000
									}
								}
							}
						}
					}
				}
				JOINT RightShoulder
				{
					OFFSET 0.000000 0.000000 0.000000
					CHANNELS 3 Zrotation Yrotation Xrotation
					JOINT RightArm
					{
						OFFSET -3.136600 1.374050 -0.404650
						CHANNELS 3 Zrotation Yrotation Xrotation
						JOINT RightForeArm
						{
							OFFSET -5.241900 -0.000000 -0.000000
							CHANNELS 3 Zrotation Yrotation Xrotation
							JOINT RightHand
							{
								OFFSET -3.444170 -0.000000 -0.000000
								CHANNELS 3 Zrotation Yrotation Xrotation
								JOINT RightFingerBase
								{
									OFFSET 0.000000 0.000000 0.000000
									CHANNELS 3 Zrotation Yrotation Xrotation
									JOINT RightHandIndex1
									{
										OFFSET -0.622530 -0.000000 -0.000000
										CHANNELS 3 Zrotation Yrotation Xrotation
										End Site
										{
											OFFSET 0.000000 0.000000 0.000000
										}
									}
								}
								JOINT RThumb
								{
									OFFSET 0.000000 0.000000 0.000000
									CHANNELS 3 Zrotation Yrotation Xrotation
									End Site
									{
										OFFSET 0.000000 0.000000 0.000000
									}
								}
							}
						}
					}
				}
			}
		}
	}
}
MOTION
Frames: 8
Frame Time: 0.008333
2.845537 16.803913 -1.357257 137.873976 -80.811426 -131.692715 -10.326945 -0.052389 0.137579 -4.148443 -6.452049 -26.040256 0.618588 2.294335 48.971317 4.162940 28.564435 5.473160 6.863800 0.000000 -45.684700 10.058239 0.271934 -1.317703 5.488084 1.850054 -19.301376 1.063957 -2.373618 37.422058 -2.167518 -7.426310 -17.363252 1.233399 -0.000000 -57.061200 -0.885331 -1.644831 2.118244 -0.811521 -1.564478 -2.874479 -5.797047 -1.608874 -1.464316 9.456345 -10.359418 -8.248162 -2.849523 -0.212800 -0.178888 0.000000 0.000000 0.000000 -2.954696 5.686296 1.737103 -49.342918 16.964312 36.021585 -1.861983 -62.487105 -0.001127 -8.478337 -9.335972 0.695323 0.014291 0.005203 0.000000 0.000000 0.000000 0.000000 0.000000 0.000000 0.000000 13.613850 -5.354419 0.919523 57.121656 -7.779132 30.566502 1.229976 62.500680 -0.000056 -5.544744 6.435451 -0.325742 0.120604 -0.167342 0.000000 0.000000 0.000000 0.000000 0.000000 0.000000 0.000000 
2.867140 16.793915 -1.386741 136.809251 -80.594619 -130.896952 -10.317318 -0.126715 0.185359 -4.400969 -7.244160 -27.205850 0.714406 2.443825 51.610183 4.151465 28.466039 5.522801 6.819100 -0.000001 -43.571500 10.124343 0.318715 -1.375802 5.245584 1.761659 -19.195460 1.037408 -2.408362 37.761519 -2.156052 -7.371879 -17.520440 1.253200 -0.000000 -57.107200 -0.984021 -1.677087 2.137428 -0.827575 -1.590477 -2.878868 -5.773629 -1.636272 -1.516520 9.411284 -10.252387 -8.185592 -2.870521 -0.215295 -0.161969 0.000000 0.000000 0.000000 -2.865954 5.451072 1.735357 -49.519363 17.167296 36.136787 -1.859613 -62.369526 -0.001557 -8.490338 -9.350606 0.697401 0.016129 0.004591 0.000000 0.000000 0.000000 0.000000 0.000000 0.000000 0.000000 13.665050 -5.262435 0.937697 56.974088 -7.642420 30.690993 1.232134 62.345493 -0.000077 -5.560765 6.432796 -0.326545 0.120482 -0.166797 0.000000 0.000000 0.000000 0.000000 0.000000 0.000000 0.000000 
2.889370 16.785147 -1.415338 135.561413 -80.390043 -129.910278 -10.305122 -0.207341 0.226238 -4.700569 -7.984705 -28.454777 0.813061 2.595082 54.265590 4.131353 28.281525 5.410702 6.677600 0.000000 -41.764501 10.197832 0.366838 -1.427944 4.973395 1.660469 -19.100086 1.007832 -2.440961 38.078431 -2.148201 -7.341167 -17.660773 1.272199 0.000000 -57.160700 -1.102690 -1.716442 2.153256 -0.847598 -1.622596 -2.884489 -5.751408 -1.670002 -1.571479 9.366248 -10.136855 -8.117301 -2.891839 -0.217866 -0.143547 0.000000 0.000000 0.000000 -2.761635 5.184786 1.735364 -49.683660 17.379828 36.250105 -1.855377 -62.283438 -0.001987 -8.502683 -9.359358 0.699279 0.018122 0.004164 0.000000 0.000000 0.000000 0.000000 0.000000 0.000000 0.000000 13.716071 -5.166203 0.959381 56.833644 -7.476422 30.804201 1.234903 62.173241 -0.000102 -5.575278 6.428962 -0.327149 0.120367 -0.166332 0.000000 0.000000 0.000000 0.000000 0.000000 0.000000 0.000000 
2.912232 16.777647 -1.442799 134.199728 -80.201813 -128.801377 -10.293666 -0.295139 0.256401 -5.031352 -8.649154 -29.792357 0.915220 2.750045 56.935632 4.101234 27.997583 5.086080 6.415200 -0.000000 -39.971700 10.273872 0.414546 -1.472908 4.688858 1.558400 -19.008932 0.975763 -2.470373 38.365120 -2.145720 -7.342581 -17.782079 1.291299 0.000000 -57.210600 -1.230164 -1.760932 2.168048 -0.869255 -1.659426 -2.889706 -5.729074 -1.708489 -1.624015 9.320164 -10.020468 -8.048924 -2.912584 -0.220354 -0.125246 0.000000 0.000000 0.000000 -2.636056 4.906147 1.737542 -49.844963 17.566759 36.374848 -1.849995 -62.207241 -0.002371 -8.508228 -9.369488 0.700559 0.020111 0.004059 0.000000 0.000000 0.000000 0.000000 0.000000 0.000000 0.000000 13.764122 -5.073288 0.983700 56.697379 -7.265420 30.915368 1.238037 61.980660 -0.000148 -5.595093 6.419498 -0.327853 0.120349 -0.165897 0.000000 0.000000 0.000000 0.000000 0.000000 0.000000 0.000000 
2.935761 16.771568 -1.469248 132.733462 -80.030721 -127.579390 -10.282474 -0.391292 0.276015 -5.387772 -9.236852 -31.214358 1.022245 2.907694 59.597780 4.063415 27.635641 4.565623 6.051201 0.000000 -38.040600 10.351630 0.461562 -1.511669 4.396252 1.454438 -18.917920 0.941750 -2.496259 38.616637 -2.148240 -7.374152 -17.883000 1.310400 -0.000000 -57.257500 -1.364672 -1.809817 2.182951 -0.892349 -1.700328 -2.894409 -5.707065 -1.751081 -1.674405 9.272852 -9.902518 -7.980546 -2.932921 -0.222770 -0.107118 0.000000 0.000000 0.000000 -2.489109 4.614231 1.742356 -50.000539 17.723605 36.513875 -1.843637 -62.138179 -0.002703 -8.506998 -9.381416 0.701541 0.022070 0.004255 0.000000 0.000000 0.000000 0.000000 0.000000 0.000000 0.000000 13.809394 -4.982502 1.010701 56.568206 -7.012893 31.022383 1.241498 61.767509 -0.000217 -5.621898 6.402711 -0.328456 0.120440 -0.165486 0.000000 0.000000 0.000000 0.000000 0.000000 0.000000 0.000000 
2.959801 16.767043 -1.495092 131.116290 -79.872607 -126.195339 -10.266826 -0.497814 0.290617 -5.775004 -9.769561 -32.712619 1.136519 3.063149 62.213105 4.025438 27.261970 3.972905 5.664900 0.000000 -36.820999 10.435154 0.509357 -1.545755 4.083266 1.332828 -18.832880 0.906109 -2.518850 38.833275 -2.152973 -7.422135 -17.962148 1.327701 0.000000 -57.315400 -1.515599 -1.864024 2.194093 -0.919322 -1.745858 -2.901369 -5.688566 -1.798569 -1.730756 9.225842 -9.768057 -7.904288 -2.954711 -0.225380 -0.086905 0.000000 0.000000 0.000000 -2.329084 4.283875 1.750323 -50.131028 17.892737 36.652168 -1.835682 -62.104127 -0.003043 -8.509739 -9.383579 0.702120 0.024159 0.004517 0.000000 0.000000 0.000000 0.000000 0.000000 0.000000 0.000000 13.857677 -4.877064 1.041487 56.454004 -6.753140 31.102165 1.245546 61.542819 -0.000300 -5.642979 6.377463 -0.328460 0.120454 -0.165134 0.000000 0.000000 0.000000 0.000000 0.000000 0.000000 0.000000 
2.984609 16.764061 -1.519818 129.445860 -79.734213 -124.750388 -10.252070 -0.615309 0.294991 -6.167485 -10.224463 -34.289830 1.257093 3.219802 64.789004 3.983601 26.846480 3.245077 5.221900 -0.000000 -35.552400 10.516227 0.555350 -1.576132 3.777972 1.208946 -18.740003 0.870071 -2.537124 39.005458 -2.161846 -7.495211 -18.017470 1.344200 -0.000001 -57.369500 -1.663491 -1.919838 2.208446 -0.945913 -1.793204 -2.906883 -5.670275 -1.847791 -1.783177 9.175880 -9.634331 -7.831104 -2.975867 -0.227850 -0.067792 0.000000 0.000000 0.000000 -2.148245 3.950485 1.761895 -50.254361 18.007859 36.815407 -1.827242 -62.066113 -0.003311 -8.504105 -9.391897 0.702404 0.026117 0.005124 0.000000 0.000000 0.000000 0.000000 0.000000 0.000000 0.000000 13.900879 -4.774320 1.074361 56.347549 -6.452371 31.178027 1.249611 61.301506 -0.000422 -5.673833 6.343079 -0.328464 0.120593 -0.164819 0.000000 0.000000 0.000000 0.000000 0.000000 0.000000 0.000000 
3.010046 16.762685 -1.543825 127.681696 -79.609915 -123.202552 -10.233294 -0.744806 0.294122 -6.571237 -10.622936 -35.938893 1.385017 3.373587 67.295759 3.943574 26.438255 2.491659 4.785400 0.000000 -34.821000 10.598913 0.600986 -1.604306 3.467985 1.066787 -18.645866 0.834039 -2.551473 39.135522 -2.171645 -7.577220 -18.048337 1.357800 -0.000001 -57.433100 -1.817037 -1.977657 2.222586 -0.974396 -1.842415 -2.913569 -5.655135 -1.899016 -1.839476 9.124362 -9.487712 -7.753437 -2.998041 -0.230425 -0.047607 0.000000 0.000000 0.000000 -1.955955 3.590965 1.777377 -50.350837 18.110163 36.989267 -1.817669 -62.052443 -0.003566 -8.501534 -9.395898 0.702686 0.028112 0.005847 0.000000 0.000000 0.000000 0.000000 0.000000 0.000000 0.000000 13.944063 -4.658545 1.110177 56.255703 -6.144866 31.228494 1.253867 61.054891 -0.000569 -5.701546 6.300201 -0.327868 0.120671 -0.164597 0.000000 0.000000 0.000000 0.000000 0.000000 0.000000 0.000000 
